<svg xmlns="http://www.w3.org/2000/svg" xmlns:xlink="http://www.w3.org/1999/xlink" viewBox="0 0 350 330">
  <g id="dirigable" transform-origin="center">
    <animate attributeType="CSS" attributeName="opacity" begin="4s" values="1; 0" keyTimes="0; 1" dur="1s" calcMode="linear" fill="freeze" />
    <animateTransform attributeName="transform"
                      type="scale"
                      values="1 1; 1 0.8; 1 1"
                      keyTimes="0; 0.5; 1"
                      keySplines="0 0 0.59 1; 0.42 0 1 1"
                      calcMode="spline"
                      dur="3s"
                      additive="sum"
                      repeatCount="indefinite"/>
    <g id="blades">
      <animateTransform attributeName="transform"
                        type="translate"
                        values="0 5; 0 -5; 0 5"
                        keyTimes="0; 0.5; 1"
                        calcMode="linear"
                        dur="3s"
                        repeatCount="indefinite"/>
      <path d="M123.23,207.39h9.16a3.29,3.29,0,0,0,3.29-3.3v-5.71a3.29,3.29,0,0,0-3.29-3.3H115.57a1.32,1.32,0,0,0-1.32,1.32v2a9,9,0,0,0,9,9" fill="#068e4d"/>
      <path d="M123.23,207.39h9.16a3.29,3.29,0,0,0,3.29-3.3v-5.71a3.29,3.29,0,0,0-3.29-3.3H115.57a1.32,1.32,0,0,0-1.32,1.32v2A9,9,0,0,0,123.23,207.39Z" fill="none" stroke="#fff" stroke-linecap="round" stroke-linejoin="round" stroke-width="2"/>
      <path d="M123.23,173.34h9.16a3.29,3.29,0,0,1,3.29,3.3v5.71a3.29,3.29,0,0,1-3.29,3.3H115.57a1.32,1.32,0,0,1-1.32-1.32v-2a9,9,0,0,1,9-9" fill="#068e4d"/>
      <path d="M123.23,173.34h9.16a3.29,3.29,0,0,1,3.29,3.3v5.71a3.29,3.29,0,0,1-3.29,3.3H115.57a1.32,1.32,0,0,1-1.32-1.32v-2A9,9,0,0,1,123.23,173.34Z" fill="none" stroke="#fff" stroke-linecap="round" stroke-linejoin="round" stroke-width="2"/>
    </g>
    <path d="M175.44,249.28h48.36a13.27,13.27,0,0,0,13-10.65l3.74-18.32H172.36v25.89A3.09,3.09,0,0,0,175.44,249.28Z" fill="none" stroke="#fff" stroke-linecap="round" stroke-linejoin="round" stroke-width="2"/>
    <path d="M235.79,241.69h-9.22a8.31,8.31,0,0,1-8.28-8.31V220.31" fill="none" stroke="#fff" stroke-linecap="round" stroke-miterlimit="10" stroke-width="2"/>
      <!-- Правое окно дерижабля -->
    <path d="M204.25,231.88h-2.05a3.45,3.45,0,0,0-3.43,3.45v2.92a3.45,3.45,0,0,0,3.43,3.45h2.05a3.45,3.45,0,0,0,3.43-3.45v-2.92A3.44,3.44,0,0,0,204.25,231.88Z" fill="none" stroke="#fff" stroke-linecap="round" stroke-linejoin="round" stroke-width="2">
    </path>
    <path d="M185.64,231.88h-2.05a3.45,3.45,0,0,0-3.43,3.45v2.92a3.45,3.45,0,0,0,3.43,3.45h2.05a3.45,3.45,0,0,0,3.43-3.45v-2.92A3.45,3.45,0,0,0,185.64,231.88Z" fill="none" stroke="#fff" stroke-linecap="round" stroke-linejoin="round" stroke-width="2"/>
    <path d="M205,227.08c43.38,0,74.86-15.55,74.86-37s-31.48-37-74.86-37c-27.94,0-55.36,13.53-73.46,24.87a14.3,14.3,0,0,0,0,24.21c18.09,11.33,45.52,24.87,73.46,24.87" fill="#068e4d"/>
    <path d="M205,227.08c43.38,0,74.86-15.55,74.86-37s-31.48-37-74.86-37c-27.94,0-55.36,13.53-73.46,24.87a14.3,14.3,0,0,0,0,24.21C149.63,213.54,177.06,227.08,205,227.08Z" fill="none" stroke="#fff" stroke-width="2"/>
    <path d="M205,176.09c-28.23,0-56.07,5.76-72.81,10-3.95,1-6,2.66-6.08,4.34A12.93,12.93,0,0,1,132.18,179c16.74-10.5,44.58-24.68,72.81-24.68,44.81,0,73.64,16,73.64,35.75,0,0.12,0,.24,0,0.37-0.37-7.95-29.1-14.37-73.63-14.37" fill="#36e69a"/>
    <path d="M132.18,195.12c16.74,4.27,44.58,10,72.81,10,44.14,0,72.75-6.32,73.6-14.18-0.86,19.34-29.45,34.86-73.6,34.86-28.23,0-56.07-14.19-72.81-24.68a12.88,12.88,0,0,1-6-10.18c0.26,1.61,2.26,3.18,6,4.14" fill="#068e4d"/>
    <path d="M132.18,186.12c16.74-4.27,44.58-10,72.81-10,44.53,0,73.26,6.43,73.61,14.38,0,0.17,0,.34,0,0.51-0.85,7.86-29.45,14.17-73.6,14.17-28.23,0-56.07-5.76-72.81-10-3.79-1-5.79-2.53-6-4.13l0-.51c0.13-1.69,2.15-3.36,6.1-4.37" fill="#25b774"/>
    <path d="M123.23,173.34h9.16a3.29,3.29,0,0,1,3.29,3.3v5.71a3.29,3.29,0,0,1-3.29,3.3H115.57a1.32,1.32,0,0,1-1.32-1.32v-2a9,9,0,0,1,9-9" fill="#068e4d"/>
    <path d="M123.23,173.34h9.16a3.29,3.29,0,0,1,3.29,3.3v5.71a3.29,3.29,0,0,1-3.29,3.3H115.57a1.32,1.32,0,0,1-1.32-1.32v-2A9,9,0,0,1,123.23,173.34Z" fill="none" stroke="#fff" stroke-linecap="round" stroke-linejoin="round" stroke-width="2"/>
    <path d="M123.23,207.39h9.16a3.29,3.29,0,0,0,3.29-3.3v-5.71a3.29,3.29,0,0,0-3.29-3.3H115.57a1.32,1.32,0,0,0-1.32,1.32v2a9,9,0,0,0,9,9" fill="#068e4d"/>
    <path d="M123.23,207.39h9.16a3.29,3.29,0,0,0,3.29-3.3v-5.71a3.29,3.29,0,0,0-3.29-3.3H115.57a1.32,1.32,0,0,0-1.32,1.32v2A9,9,0,0,0,123.23,207.39Z" fill="none" stroke="#fff" stroke-linecap="round" stroke-linejoin="round" stroke-width="2"/>
    <path d="M123.23,173.34h9.16a3.29,3.29,0,0,1,3.29,3.3v5.71a3.29,3.29,0,0,1-3.29,3.3H115.57a1.32,1.32,0,0,1-1.32-1.32v-2a9,9,0,0,1,9-9" fill="#068e4d"/>
    <path d="M123.23,173.34h9.16a3.29,3.29,0,0,1,3.29,3.3v5.71a3.29,3.29,0,0,1-3.29,3.3H115.57a1.32,1.32,0,0,1-1.32-1.32v-2A9,9,0,0,1,123.23,173.34Z" fill="none" stroke="#fff" stroke-linecap="round" stroke-linejoin="round" stroke-width="2"/>
    <path d="M123.23,207.39h9.16a3.29,3.29,0,0,0,3.29-3.3v-5.71a3.29,3.29,0,0,0-3.29-3.3H115.57a1.32,1.32,0,0,0-1.32,1.32v2a9,9,0,0,0,9,9" fill="#068e4d"/>
    <path d="M123.23,207.39h9.16a3.29,3.29,0,0,0,3.29-3.3v-5.71a3.29,3.29,0,0,0-3.29-3.3H115.57a1.32,1.32,0,0,0-1.32,1.32v2A9,9,0,0,0,123.23,207.39Z" fill="none" stroke="#fff" stroke-linecap="round" stroke-linejoin="round" stroke-width="2"/>
  </g>

  <g id="clouds-left">
    <animate attributeType="CSS" attributeName="opacity" begin="2s" values="1; 0" keyTimes="0; 1" dur="1s" calcMode="linear" fill="freeze" />
    <line x1="68.95" y1="107.8" x2="131.86" y2="107.8" fill="none" stroke="#fff" stroke-linecap="round" stroke-miterlimit="10" stroke-width="2">
      <animateTransform attributeName="transform" type="translate" values="300; 0;" keyTimes="0; 1" calcMode="linear" dur="3s" repeatCount="indefinite"/>
    </line>
    <path d="M41.77,97.54H77.06a12.4,12.4,0,1,1,24.8,0h17.93" fill="none" stroke="#fff" stroke-linecap="round" stroke-miterlimit="10" stroke-width="2">
      <animateTransform attributeName="transform" type="translate" values="300; 0;" keyTimes="0; 1" keySplines="0 0 0.9 1;" calcMode="spline" dur="3s" additive="sum" repeatCount="indefinite"/>
    </path>
  </g>

  <g id="clouds-right">
    <animate attributeType="CSS" attributeName="opacity" begin="4s" values="1; 0" keyTimes="0; 1" dur="1s" calcMode="linear" fill="freeze" />
    <line x1="258.96" y1="93.19" x2="298.74" y2="93.19" fill="none" stroke="#fff" stroke-linecap="round" stroke-miterlimit="10" stroke-width="2">
      <animateTransform attributeName="transform" type="translate" values="300; -200;" keyTimes="0; 1" keySplines="0 0 0.9 1;" calcMode="spline" dur="5s" repeatCount="indefinite"/>
    </line>
    <g id="clouds">
      <animateTransform attributeName="transform" type="translate" values="300; -200;" keyTimes="0; 1" calcMode="linear" dur="5s" repeatCount="indefinite"/>
      <path d="M278.75,82.91H251.39a12.4,12.4,0,1,0-24.8,0H208.65" fill="none" stroke="#fff" stroke-linecap="round" stroke-miterlimit="10" stroke-width="2"/>
      <line x1="287.01" y1="82.91" x2="309.21" y2="82.91" fill="none" stroke="#fff" stroke-linecap="round" stroke-miterlimit="10" stroke-width="2"/>
    </g>
  </g>

  <g id="air-from-dirigable">
    <animate attributeType="CSS" attributeName="opacity" begin="4s" values="1; 0" keyTimes="0; 1" dur="1s" calcMode="linear" fill="freeze" />
    <line x1="106.25" y1="179.49" x2="84.05" y2="179.49" fill="none" stroke="#fff" stroke-linecap="round" stroke-miterlimit="10" stroke-width="2">
      <animate attributeName="x2" from="84.05" to="95" dur="0.3s" repeatCount="indefinite" /> 
    </line>
    <line x1="106.25" y1="201.23" x2="84.05" y2="201.23" fill="none" stroke="#fff" stroke-linecap="round" stroke-miterlimit="10" stroke-width="2">
      <animate attributeName="x2" from="84.05" to="95" dur="0.2s" repeatCount="indefinite" /> 
    </line>
    <line x1="106.25" y1="190.98" x2="68.77" y2="190.98" fill="none" stroke="#fff" stroke-linecap="round" stroke-miterlimit="10" stroke-width="2">
      <animate attributeName="x2" from="68.77" to="84.05" dur="0.4s" repeatCount="indefinite" /> 
    </line>
  </g>
  
  <g id="mountain">
    <path d="M289.94,327.88H244.88L212.8,296.58a1.89,1.89,0,0,0-2.44,0l-10.2,10.23a1.72,1.72,0,0,1-2.25,0l-19-20.17a2.4,2.4,0,0,0-3.1,0l-26.42,25.64a1.71,1.71,0,0,1-2.25,0l-2.63-2.92a1.71,1.71,0,0,0-2.31,0L124.63,329H80.78" fill="none" stroke="#fff" stroke-linecap="round" stroke-miterlimit="10" stroke-width="2">
      <animate attributeName="d" 
               from="M 80.78 329 L 124.63 329 L 142.2 309.36 C 142.515 309.071 142.928 308.911 143.355 308.911 C 143.782 308.911 144.195 309.071 144.51 309.36 L 147.14 312.28 C 147.451 312.552 147.851 312.702 148.265 312.702 C 148.679 312.702 149.079 312.552 149.39 312.28 L 175.81 286.64 C 176.243 286.274 176.793 286.072 177.36 286.072 C 177.927 286.072 178.477 286.274 178.91 286.64 L 197.91 306.81 C 198.222 307.08 198.622 307.229 199.035 307.229 C 199.448 307.229 199.848 307.08 200.16 306.81 L 210.36 296.58 C 210.701 296.292 211.133 296.134 211.58 296.134 C 212.027 296.134 212.459 296.292 212.8 296.58 L 244.88 327.88 L 289.94 327.88" 
               to="M 84 327 L 95.441 327 L 106.882 327 C 110.696 327 114.51 327 118.323 327 C 122.137 327 125.951 327 129.764 327 L 141.206 327 C 145.019 327 148.833 327 152.647 327 C 156.46 327 160.274 327 164.088 327 L 175.529 327 C 179.343 327 183.156 327 186.97 327 C 190.784 327 194.597 327 198.411 327 L 209.852 327 C 213.666 327 217.48 327 221.293 327 C 225.107 327 228.921 327 232.734 327 L 244.176 327 C 247.989 327 251.803 327 255.617 327 C 259.43 327 263.244 327 267.058 327 L 278.499 327 L 289.94 327"
               dur="1s"
               begin="5s"
               fill="freeze" /> 
    </path>
  </g>
</svg>